# xmcd CD database file
#
# Track frame offsets:
#	150
#	10927
#	21672
#	34745
#	44865
#	56622
#	69647
#	81442
#	95645
#	112745
#	124700
#	137242
#	151325
#
# Disc length: 2192 seconds
#
# Revision: 0
# Processed by: cddbd v1.5.2PL0 Copyright (c) Steve Scherf et al.
# Submitted via: CDex 1.51
#
DISCID=b7088e0d
DTITLE=John Evans Band - Lucky 13
DYEAR=2008
DGENRE=Country
TTITLE0=Sweeten Up My Game
TTITLE1=Not Afraid To Fall In Love
TTITLE2=Going Down Loud
TTITLE3=Champagne Brunches
TTITLE4=Electric Gum Drop
TTITLE5=Butterfly Girl
TTITLE6=Three Shades Of Blue
TTITLE7=Hoochie In A Honky Tonk
TTITLE8=Forget To Remember You're Gone
TTITLE9=Ride Away
TTITLE10=All That Makes Me Sad
TTITLE11=Crayola Blue
TTITLE12=Bad Thoughts In A Good Way
EXTD=YEAR: 2008
EXTT0=
EXTT1=
EXTT2=
EXTT3=
EXTT4=
EXTT5=
EXTT6=
EXTT7=
EXTT8=
EXTT9=
EXTT10=
EXTT11=
EXTT12=
PLAYORDER=
